<svg width="150" height="48" viewBox="0 0 150 48" fill="none" xmlns="http://www.w3.org/2000/svg">
  <path d="M68.1809 0H40.9082V48H68.1809V0Z" fill="#EC0D0D" />
  <path d="M56.5733 29.4115C57.6527 29.3971 58.726 29.5767 59.7439 29.9422C60.6371 30.2627 61.4629 30.7517 62.1779 31.3837C62.8438 31.9795 63.3759 32.7141 63.738 33.5377C64.0998 34.3788 64.2866 35.2871 64.2866 36.2053C64.2866 37.1235 64.0998 38.0318 63.738 38.8729C63.376 39.6967 62.8439 40.4316 62.1779 41.0275C61.4629 41.6595 60.6371 42.1485 59.7439 42.469C58.726 42.8345 57.6527 43.014 56.5733 42.9991H43.832V22H62.0416V26.941H49.9019V29.4115H56.5733ZM56.1158 38.0582C56.6646 38.0786 57.2004 37.8859 57.6146 37.5192C57.8005 37.3565 57.9496 37.1549 58.0519 36.9281C58.1541 36.7013 58.207 36.4548 58.207 36.2053C58.207 35.9558 58.1541 35.7093 58.0519 35.4825C57.9496 35.2558 57.8005 35.0541 57.6146 34.8914C57.2002 34.5249 56.6645 34.3323 56.1158 34.3524H49.9019V38.0582H56.1158Z" fill="white" />
  <path d="M98.3762 0H71.1035V48H98.3762V0Z" fill="#EC0D0D" />
  <path d="M81.016 22V33.5003L90.8996 22H95.4545V43H89.4385V31.8824L79.5538 43H75V22H81.016Z" fill="white" />
  <path d="M37.013 0H0V48H37.013V0Z" fill="#EC0D0D" />
  <path d="M21.0045 22V30.8343L25.6106 22H32.4345L26.4635 32.3335L33.1167 43H26.2928L21.0045 33.9998V43H15.034V33.9998L9.74574 43H2.92188L9.57506 32.3335L3.60461 22H10.4279L15.034 30.8343V22H21.0045Z" fill="white" />
</svg>